[Header]
FileType HTR
DataType HTRS
FileVersion 1
NumSegments 22
NumFrames 5
DataFrameRate 24
EulerRotationOrder ZYX
CalibrationUnits mm
RotationUnits Degrees
GlobalAxisofGravity Y
BoneLengthAxis Y
ScaleFactor 1.0
[SegmentNames&Hierarchy]
reference	GLOBAL
Hips	reference
Spine	Hips
Spine1	Spine
Neck	Spine1
Head	Neck
LeftShoulder	Spine1
LeftArm	LeftShoulder
LeftForeArm	LeftArm
LeftHand	LeftForeArm
RightShoulder	Spine1
RightArm	RightShoulder
RightForeArm	RightArm
RightHand	RightForeArm
LeftUpLeg	Hips
LeftLeg	LeftUpLeg
LeftFoot	LeftLeg
LeftToeBase	LeftFoot
RightUpLeg	Hips
RightLeg	RightUpLeg
RightFoot	RightLeg
RightToeBase	RightFoot
[BasePosition]
reference	0	0	0	0	0	0	1
Hips	0	0	0	0	0	0	1
Spine	0	0	0	0	-0	90	1
Spine1	0	0	0	0	0	0	1
Neck	0	0	0	-7.352327771	-7.352327771	90	1
Head	0	0	0	0	-0	90	1
LeftShoulder	0	0	0	0	0	0	1
LeftArm	0	0	0	0	0	0	1
LeftForeArm	0	0	0	0	0	0	1
LeftHand	0	0	0	0	0	0	1
RightShoulder	0	0	0	0	-0	180	1
RightArm	0	0	0	0	-0	180	1
RightForeArm	0	0	0	0	-0	180	1
RightHand	0	0	0	0	-0	180	1
LeftUpLeg	0	0	0	0	-0	-90	1
LeftLeg	0	0	0	0	-0	-90	1
LeftFoot	0	0	0	66.57146043	-66.57146043	-90	1
LeftToeBase	0	0	0	0	-90	0	1
RightUpLeg	0	0	0	0	-0	-90	1
RightLeg	0	0	0	0	-0	-90	1
RightFoot	0	0	0	66.57146043	-66.57146043	-90	1
RightToeBase	0	0	0	0	-90	0	1
[reference]
40	0	0	0	0	-0	0	1.0
41	0	0	0	0	-0	0	1.0
42	0	0	0	0	-0	0	1.0
43	0	0	0	0	-0	0	1.0
44	0	0	0	0	-0	0	1.0
[Hips]
40	5.022288322	8.555624962	1.092952371	360.9745483	-116.9722443	-357.3205872	1.0
41	4.73702383	8.561817169	1.068783641	359.8526306	-118.5746841	-355.4282532	1.0
42	4.432124615	8.566898346	1.047456503	359.4588013	-119.4439545	-354.4410095	1.0
43	4.130490303	8.570922852	1.026472688	361.3086548	-119.1147308	-355.3562622	1.0
44	3.8126266	8.573945999	1.011554718	363.7513733	-118.4951324	-357.5527039	1.0
[Spine]
40	0	0.7457100153	0	-9.038439751	0.1507337838	-90.1892395	1.0
41	0	0.7457100153	0	-9.817741394	0.1965104789	-89.53026581	1.0
42	0	0.7457100153	0	-10.50982571	0.1995557845	-89.49963379	1.0
43	0	0.7457100153	0	-11.46016121	-0.1823852062	-90.54925537	1.0
44	0	0.7457100153	0	-12.09678936	-0.2650640011	-92.0714798	1.0
[Spine1]
40	0	2.140589952	0	9.592539787	0.007082066964	0.6316689849	1.0
41	0	2.140589952	0	9.838907242	-0.01977930963	0.8033012748	1.0
42	0	2.140589952	0	10.03108597	-0.05970483646	1.17686367	1.0
43	0	2.140589952	0	10.01781464	-0.181468457	1.54086411	1.0
44	0	2.140589952	0	9.544932365	-0.1576482505	1.522686839	1.0
[Neck]
40	0	2.32246995	0	-13.53880787	14.11322021	-89.37229156	1.0
41	0	2.32246995	0	-14.11659622	14.17776108	-89.32076263	1.0
42	0	2.32246995	0	-14.68126392	14.4566288	-88.83156586	1.0
43	0	2.32246995	0	-15.22498512	14.45397568	-88.15409851	1.0
44	0	2.32246995	0	-15.0433979	14.58845425	-87.03038025	1.0
[Head]
40	0	1.409579992	0.1818799973	-3.260769367	7.198954582	-91.91242981	1.0
41	0	1.409579992	0.1818799973	-3.116241932	7.254150391	-91.76287079	1.0
42	0	1.409579992	0.1818799973	-2.879935503	7.558887482	-92.11349487	1.0
43	0	1.409579992	0.1818799973	-2.708969116	7.524782658	-92.22141266	1.0
44	0	1.409579992	0.1818799973	-1.891295314	7.667312622	-92.61754608	1.0
[LeftShoulder]
40	0.3668199778	1.946700096	-0.02662999928	-18.85689926	-13.78443241	-3.805763245	1.0
41	0.3668199778	1.946700096	-0.02662999928	-19.10441589	-13.45582008	-3.439704895	1.0
42	0.3668199778	1.946700096	-0.02662999928	-19.7929306	-13.2252655	-2.892100096	1.0
43	0.3668199778	1.946700096	-0.02662999928	-19.51768684	-13.60607338	-3.141502142	1.0
44	0.3668199778	1.946700096	-0.02662999928	-19.19771004	-13.7905941	-2.572249174	1.0
[LeftArm]
40	1.140689969	0	0	55.96699524	1.962839007	-74.48538971	1.0
41	1.140689969	0	0	55.72116089	-0.3473469019	-74.509758	1.0
42	1.140689969	0	0	55.71250534	-1.164879918	-75.0642395	1.0
43	1.140689969	0	0	56.07696533	-1.436072826	-74.87358093	1.0
44	1.140689969	0	0	55.78676605	-0.6654389501	-75.55519104	1.0
[LeftForeArm]
40	2.749800205	0	0	-14.15442276	-26.41664696	13.13308716	1.0
41	2.749800205	0	0	-14.47211361	-30.62953377	16.47881508	1.0
42	2.749800205	0	0	-15.55443382	-34.28010178	19.59866714	1.0
43	2.749800205	0	0	-16.71150589	-36.92966843	22.23926163	1.0
44	2.749800205	0	0	-16.77098656	-38.37640381	22.08690071	1.0
[LeftHand]
40	2.295179844	0	0	-11.14891434	-8.681045532	1.187885284	1.0
41	2.295179844	0	0	-10.04245281	-9.379528999	1.373576522	1.0
42	2.295179844	0	0	-9.742015839	-9.739219666	3.356985569	1.0
43	2.295179844	0	0	-9.631700516	-10.08153152	4.876724243	1.0
44	2.295179844	0	0	-9.519284248	-10.89178848	5.448148727	1.0
[RightShoulder]
40	-0.3601199985	1.946700096	-0.02662999928	-4.568226814	5.296147346	176.469635	1.0
41	-0.3601199985	1.946700096	-0.02662999928	-3.756165981	4.89509058	175.3251801	1.0
42	-0.3601199985	1.946700096	-0.02662999928	-2.910486698	4.0924263	174.3430481	1.0
43	-0.3601199985	1.946700096	-0.02662999928	-2.70720911	3.051316261	173.9897003	1.0
44	-0.3601199985	1.946700096	-0.02662999928	-2.023480892	2.680854797	174.3026123	1.0
[RightArm]
40	-1.140689969	0	0	30.86014557	-8.00137043	-109.300766	1.0
41	-1.140689969	0	0	24.90143967	-11.19203568	-111.7762222	1.0
42	-1.140689969	0	0	18.64780045	-13.55860138	-113.8058548	1.0
43	-1.140689969	0	0	13.99546146	-15.10821438	-114.9285889	1.0
44	-1.140689969	0	0	11.84138107	-15.87584496	-114.5900421	1.0
[RightForeArm]
40	-2.749800205	0	0	8.36803627	5.190176964	187.9174957	1.0
41	-2.749800205	0	0	9.556404114	5.689647198	189.0825653	1.0
42	-2.749800205	0	0	11.35259438	5.348931789	190.5220032	1.0
43	-2.749800205	0	0	12.72456169	3.757643223	191.1493835	1.0
44	-2.749800205	0	0	12.71877193	1.754821301	191.1008453	1.0
[RightHand]
40	-2.295179844	0	0	7.906841278	2.734500647	175.7436523	1.0
41	-2.295179844	0	0	8.968464851	3.04713583	174.9144135	1.0
42	-2.295179844	0	0	10.69459534	2.937314987	173.528244	1.0
43	-2.295179844	0	0	12.22681236	1.904981256	172.2011871	1.0
44	-2.295179844	0	0	12.54250717	0.08929493278	171.2042542	1.0
[LeftUpLeg]
40	0.9094099998	0	0	-12.63091564	-1.609527469	96.38443756	1.0
41	0.9094099998	0	0	-12.29574871	1.391912699	96.41174316	1.0
42	0.9094099998	0	0	-13.37057877	4.545844078	95.88825989	1.0
43	0.9094099998	0	0	-15.81585884	5.121522427	93.80310822	1.0
44	0.9094099998	0	0	-16.41968918	0.2232220173	93.82156372	1.0
[LeftLeg]
40	0	-4.498080254	0	0.05256646872	2.112698555	86.43708801	1.0
41	0	-4.498080254	0	-2.854608297	4.36073637	87.03250885	1.0
42	0	-4.498080254	0	1.355606437	2.471832991	86.17376709	1.0
43	0	-4.498080254	0	8.297340393	-1.234874964	86.5585556	1.0
44	0	-4.498080254	0	12.58908939	-0.7289545536	84.55224609	1.0
[LeftFoot]
40	0	-3.729400158	0	-64.77872467	107.0862732	-28.39044189	1.0
41	0	-3.729400158	0	-56.39561462	103.8512344	-22.28382874	1.0
42	0	-3.729400158	0	-84.25281525	113.3864899	-48.74691391	1.0
43	0	-3.729400158	0	-87.46849823	115.184166	-46.42948151	1.0
44	0	-3.729400158	0	-81.03805542	115.1189957	-37.53392792	1.0
[LeftToeBase]
40	0	-0.5911099911	1.364109993	0	0	0	1.0
41	0	-0.5911099911	1.364109993	0	0	0	1.0
42	0	-0.5911099911	1.364109993	0	0	0	1.0
43	0	-0.5911099911	1.364109993	0	0	0	1.0
44	0	-0.5911099911	1.364109993	0	0	0	1.0
[RightUpLeg]
40	-0.9094099998	0	0	3.366839409	2.520446062	93.34869385	1.0
41	-0.9094099998	0	0	4.800130367	3.098947287	93.28915405	1.0
42	-0.9094099998	0	0	5.89129734	1.877859235	93.00671387	1.0
43	-0.9094099998	0	0	6.381174088	-0.4221512377	91.81620026	1.0
44	-0.9094099998	0	0	6.610718727	-3.817530155	89.82475281	1.0
[RightLeg]
40	0	-4.498080254	0	7.24796629	6.631748199	90.77310181	1.0
41	0	-4.498080254	0	6.756249905	6.1442523	90.95320892	1.0
42	0	-4.498080254	0	7.239943027	4.821255207	90.25190735	1.0
43	0	-4.498080254	0	8.106578827	3.025178909	89.19596863	1.0
44	0	-4.498080254	0	10.03105354	-0.1858604252	87.44597626	1.0
[RightFoot]
40	0	-3.729400158	0	46.71400452	72.43284607	89.72087097	1.0
41	0	-3.729400158	0	48.73380661	72.22632599	93.85851288	1.0
42	0	-3.729400158	0	57.25976563	71.42012787	103.9301376	1.0
43	0	-3.729400158	0	67.46941376	68.93184662	114.0678406	1.0
44	0	-3.729400158	0	83.92385864	64.23899841	128.89711	1.0
[RightToeBase]
40	0	-0.5911099911	1.364109993	0	0	0	1.0
41	0	-0.5911099911	1.364109993	0	0	0	1.0
42	0	-0.5911099911	1.364109993	0	0	0	1.0
43	0	-0.5911099911	1.364109993	0	0	0	1.0
44	0	-0.5911099911	1.364109993	0	0	0	1.0
[EndOfFile]
